# xmcd CD database file
#
# Track frame offsets:
#	150
#	17850
#	35550
#	52875
#	61350
#	69900
#	82425
#	98250
#	114075
#	128025
#	139875
#	150225
#	154875
#	174225
#	180150
#	192525
#	214875
#	237300
#	251775
#	264000
#	281625
#	289500
#	301725
#
# Disc length: 4124 seconds
#
# Revision: 0
# Processed by: cddbd v1.4PL0 Copyright (c) Steve Scherf et al.
# Submitted via: CDex 1.50
#
DISCID=33101a17
DTITLE=Chappell Recorded Music Library (Chap AV051) - New Age Atmospheres
DYEAR=1991
DGENRE=New Age
TTITLE0=Beginnings 1
TTITLE1=Beginnings 2
TTITLE2=Autumn Colours
TTITLE3=Ocean Dreams 1
TTITLE4=Ocean Dreams 2
TTITLE5=The Stillness Of Nature
TTITLE6=Still Waters 1
TTITLE7=Still Waters 2
TTITLE8=Mother Earth
TTITLE9=Electrosphere
TTITLE10=I Remember When 1
TTITLE11=I Remember When 2
TTITLE12=Fantasy Island 
TTITLE13=Land Of Dreams
TTITLE14=Sunset
TTITLE15=Just You And Me 1
TTITLE16=Just You And Me 2
TTITLE17=Falling Petals
TTITLE18=Hilltops
TTITLE19=Sunwind
TTITLE20=Moondance
TTITLE21=No Looking Back
TTITLE22=Home At Last
EXTD=YEAR: 1991
EXTT0=
EXTT1=
EXTT2=
EXTT3=
EXTT4=
EXTT5=
EXTT6=
EXTT7=
EXTT8=
EXTT9=
EXTT10=
EXTT11=
EXTT12=
EXTT13=
EXTT14=
EXTT15=
EXTT16=
EXTT17=
EXTT18=
EXTT19=
EXTT20=
EXTT21=
EXTT22=
PLAYORDER=
